<svg preserveAspectRatio="none" overflow="visible" style="display: block;" width="118" height="118" viewBox="0 0 118 118" fill="none" xmlns="http://www.w3.org/2000/svg">
<path id="QR Code" fill-rule="evenodd" clip-rule="evenodd" d="M3.18919 0H0V3.18919V6.37838V9.56757V12.7568V15.9459V19.1351V22.3243H3.18919H6.37838H9.56757H12.7568H15.9459H19.1351H22.3243V19.1351V15.9459V12.7568V9.56757V6.37838V3.18919V0H19.1351H15.9459H12.7568H9.56757H6.37838H3.18919ZM19.1351 15.9459V19.1351H15.9459H12.7568H9.56757H6.37838H3.18919V15.9459V12.7568V9.56757V6.37838V3.18919H6.37838H9.56757H12.7568H15.9459H19.1351V6.37838V9.56757V12.7568V15.9459ZM28.7027 0H25.5135V3.18919V6.37838V9.56757H28.7027V6.37838V3.18919V0ZM35.0811 0H38.2703V3.18919H35.0811V0ZM35.0811 3.18919V6.37838H31.8919V3.18919H35.0811ZM47.8378 12.7568H44.6487V9.56757H41.4595V6.37838V3.18919H38.2703V6.37838V9.56757H35.0811V12.7568H31.8919V15.9459V19.1351V22.3243H35.0811V25.5135H31.8919H28.7027V22.3243V19.1351V15.9459H25.5135V19.1351V22.3243V25.5135V28.7027H22.3243V25.5135H19.1351V28.7027H15.9459V25.5135H12.7568H9.56757H6.37838V28.7027H9.56757H12.7568H15.9459V31.8919L12.7568 31.8919H9.56757H6.37838L3.18919 31.8919V28.7027H0V31.8919H3.18919V35.0811H6.37838H9.56757H12.7568H15.9459V38.2703H12.7568H9.56757V41.4595V44.6487V47.8378H6.37838V44.6487V41.4595V38.2703H3.18919H0V41.4595H3.18919V44.6487V47.8378H6.37838V51.027V54.2162V57.4054H3.18919V60.5946L0 60.5946V63.7838H3.18919V66.973V70.1622H0V73.3513V76.5405H3.18919H6.37838V79.7297V82.9189H9.56757H12.7568V86.1081H9.56757V89.2973H12.7568H15.9459V92.4865H19.1351H22.3243H25.5135V95.6757H28.7027V92.4865L25.5135 92.4865V89.2973H28.7027H31.8919H35.0811V92.4865L31.8919 92.4865V95.6757H35.0811H38.2703H41.4595V92.4865V89.2973H44.6487L44.6486 92.4865V95.6757V98.8649L41.4595 98.8649V102.054V105.243V108.432H38.2703V105.243V102.054H35.0811V98.8649H31.8919V102.054H35.0811V105.243V108.432H31.8919V105.243H28.7027V102.054H25.5135V105.243V108.432V111.622H28.7027V114.811V118H31.8919V114.811H35.0811V118H38.2703H41.4595V114.811H44.6487V111.622H41.4595V108.432H44.6487H47.8378V111.622H51.027V114.811L47.8378 114.811V118H51.027V114.811H54.2162H57.4054V118H60.5946L60.5946 114.811H63.7838V111.622H60.5946V108.432H63.7838H66.973L66.973 111.622V114.811H70.1622H73.3513V111.622V108.432V105.243H76.5405L76.5405 108.432H79.7297H82.9189L82.9189 111.622H86.1081V108.432V105.243H89.2973H92.4865H95.6757V108.432L92.4865 108.432H89.2973V111.622V114.811H92.4865L92.4865 118H95.6757H98.8649H102.054H105.243H108.432H111.622H114.811H118V114.811V111.622V108.432H114.811V111.622V114.811L111.622 114.811H108.432L105.243 114.811V111.622H108.432L108.432 108.432H111.622V105.243H114.811H118V102.054V98.8649V95.6757H114.811L114.811 92.4865H118V89.2973V86.1081V82.9189H114.811L111.622 82.9189V79.7297H114.811H118V76.5405V73.3513V70.1622H114.811L114.811 66.973H118V63.7838H114.811V60.5946H118V57.4054H114.811H111.622V60.5946V63.7838H108.432H105.243V60.5946V57.4054H102.054V54.2162H105.243V51.027H102.054H98.8649V47.8378H102.054H105.243H108.432V44.6487H111.622V47.8378H114.811H118V44.6486H114.811L111.622 44.6487V41.4595H114.811L114.811 38.2703H118V35.0811V31.8919H114.811H111.622V35.0811H114.811L114.811 38.2703H111.622H108.432V35.0811V31.8919H105.243V35.0811V38.2703H102.054V41.4595H98.8649V38.2703V35.0811H102.054V31.8919L98.8649 31.8919V28.7027H102.054V25.5135H98.8649H95.6757H92.4865V22.3243V19.1351V15.9459H89.2973H86.1081V19.1351H82.9189V22.3243V25.5135H86.1081V22.3243V19.1351H89.2973V22.3243V25.5135H92.4865L92.4865 28.7027H89.2973H86.1081H82.9189H79.7297V25.5135V22.3243V19.1351H76.5405V22.3243H73.3513V19.1351H70.1622V15.9459V12.7568V9.56757H73.3513V6.37838H76.5405H79.7297H82.9189L82.9189 9.56757H79.7297H76.5405V12.7568H73.3513V15.9459H76.5405H79.7297V12.7568H82.9189H86.1081V9.56757V6.37838H89.2973V9.56757H92.4865V6.37838H89.2973V3.18919H92.4865V0H89.2973V3.18919H86.1081H82.9189H79.7297V0H76.5405H73.3513V3.18919V6.37838H70.1622H66.973H63.7838V3.18919V0H60.5946V3.18919H57.4054H54.2162V0H51.027V3.18919H47.8378V6.37838H51.027V3.18919H54.2162V6.37838V9.56757H51.027H47.8378V12.7568ZM47.8378 12.7568H51.027V15.9459H47.8378V12.7568ZM66.973 19.1351L66.973 22.3243H70.1622V19.1351H66.973ZM63.7838 25.5135H60.5946V22.3243V19.1351V15.9459V12.7568H57.4054V9.56757H60.5946H63.7838V12.7568H66.973L66.973 15.9459V19.1351H63.7838V22.3243V25.5135ZM73.3513 41.4595V38.2703H70.1622H66.973V35.0811V31.8919V28.7027L66.973 25.5135H63.7838V28.7027V31.8919H60.5946V35.0811H63.7838V38.2703H60.5946V41.4595H63.7838H66.973V44.6487H63.7838H60.5946H57.4054H54.2162H51.027V41.4595H54.2162H57.4054V38.2703V35.0811V31.8919H54.2162V28.7027H57.4054V25.5135H54.2162H51.027V28.7027V31.8919V35.0811H54.2162V38.2703H51.027V41.4595H47.8378V38.2703H44.6487H41.4595V35.0811H44.6486V31.8919L47.8378 31.8919V28.7027H44.6487H41.4595V25.5135H44.6487H47.8378V22.3243H51.027V19.1351H47.8378V22.3243H44.6486L44.6487 19.1351H41.4595V15.9459H38.2703V12.7568H35.0811V15.9459H38.2703V19.1351H35.0811V22.3243H38.2703V19.1351H41.4595V22.3243V25.5135H38.2703V28.7027V31.8919L41.4595 31.8919V35.0811H38.2703H35.0811V31.8919V28.7027H31.8919H28.7027H25.5135V31.8919H22.3243L22.3243 28.7027H19.1351V31.8919H22.3243L22.3243 35.0811H19.1351V38.2703H22.3243H25.5135V35.0811H28.7027V38.2703V41.4595H25.5135H22.3243H19.1351H15.9459H12.7568V44.6487L15.9459 44.6486H19.1351H22.3243H25.5135L28.7027 44.6487V47.8378H25.5135H22.3243H19.1351H15.9459V51.027H12.7568V54.2162H15.9459V57.4054H12.7568H9.56757H6.37838V60.5946H3.18919V63.7838H6.37838V60.5946L9.56757 60.5946H12.7568L15.9459 60.5946V57.4054H19.1351H22.3243V60.5946H19.1351V63.7838H22.3243H25.5135V60.5946L28.7027 60.5946V57.4054H25.5135V54.2162H28.7027H31.8919L31.8919 51.027H28.7027V47.8378H31.8919H35.0811V51.027V54.2162H38.2703V57.4054H35.0811H31.8919V60.5946V63.7838H35.0811V66.973H31.8919H28.7027H25.5135H22.3243H19.1351V70.1622H22.3243V73.3513H19.1351H15.9459V70.1622H12.7568V66.973V63.7838H9.56757V66.973V70.1622H12.7568V73.3513H9.56757V76.5405V79.7297H12.7568H15.9459V82.9189L19.1351 82.9189L22.3243 82.9189L22.3243 86.1081H19.1351H15.9459V89.2973H19.1351H22.3243H25.5135V86.1081H28.7027H31.8919H35.0811V89.2973H38.2703V86.1081H41.4595H44.6487H47.8378V89.2973V92.4865V95.6757V98.8649V102.054H51.027V98.8649L54.2162 98.8649V95.6757H51.027V92.4865L54.2162 92.4865V89.2973H57.4054V86.1081H54.2162V89.2973H51.027V86.1081H47.8378V82.9189V79.7297V76.5405L51.027 76.5405L54.2162 76.5405V79.7297V82.9189H57.4054V79.7297V76.5405H60.5946L60.5946 79.7297V82.9189V86.1081H63.7838V89.2973H60.5946V92.4865H57.4054V95.6757V98.8649V102.054H54.2162V105.243H51.027H47.8378V108.432L51.027 108.432V111.622H54.2162V108.432V105.243H57.4054V102.054H60.5946H63.7838H66.973H70.1622V98.8649H73.3513V102.054H76.5405V105.243H79.7297V102.054H82.9189H86.1081V98.8649L89.2973 98.8649V95.6757H86.1081V92.4865H82.9189H79.7297H76.5405V95.6757H73.3513V92.4865H70.1622V95.6757H66.973V92.4865V89.2973H70.1622H73.3513V86.1081V82.9189L76.5405 82.9189H79.7297V86.1081H76.5405V89.2973H79.7297H82.9189H86.1081V86.1081H82.9189V82.9189L86.1081 82.9189V79.7297H89.2973V82.9189L92.4865 82.9189V86.1081H89.2973V89.2973H92.4865L92.4865 86.1081H95.6757V89.2973H98.8649L98.8649 86.1081H102.054V82.9189H98.8649V86.1081H95.6757V82.9189V79.7297H98.8649H102.054H105.243V82.9189V86.1081H108.432L108.432 89.2973V92.4865H105.243V95.6757H108.432V98.8649H105.243V102.054V105.243V108.432H102.054V105.243H98.8649V108.432H95.6757V111.622H98.8649L98.8649 114.811H102.054V111.622H105.243V108.432H108.432V105.243V102.054H111.622V98.8649V95.6757V92.4865L114.811 92.4865V89.2973L114.811 86.1081H111.622H108.432V82.9189L108.432 79.7297H105.243V76.5405V73.3513H108.432V76.5405H111.622V73.3513V70.1622V66.973H114.811L114.811 63.7838H111.622V66.973H108.432H105.243H102.054V70.1622H98.8649L98.8649 66.973H95.6757H92.4865V63.7838V60.5946V57.4054H95.6757V60.5946V63.7838H98.8649V60.5946V57.4054L98.8649 54.2162H95.6757H92.4865L92.4865 51.027H95.6757V47.8378V44.6487H98.8649L98.8649 41.4595H95.6757V44.6487H92.4865V47.8378V51.027H89.2973V47.8378H86.1081V44.6486L89.2973 44.6487V41.4595V38.2703V35.0811H92.4865V38.2703H95.6757V35.0811V31.8919H92.4865H89.2973H86.1081V35.0811V38.2703V41.4595H82.9189H79.7297V38.2703H82.9189L82.9189 35.0811H79.7297V38.2703H76.5405V41.4595H73.3513ZM73.3513 44.6487V41.4595H70.1622V44.6487H73.3513ZM73.3513 47.8378V44.6487H76.5405L76.5405 41.4595H79.7297V44.6487V47.8378V51.027H82.9189V47.8378H86.1081V51.027V54.2162V57.4054H82.9189L82.9189 54.2162H79.7297V57.4054V60.5946H76.5405L76.5405 57.4054H73.3513V54.2162H70.1622V51.027V47.8378H73.3513ZM73.3513 47.8378V51.027H76.5405L76.5405 47.8378H73.3513ZM76.5405 60.5946L76.5405 63.7838H73.3513V60.5946L76.5405 60.5946ZM86.1081 60.5946H89.2973V57.4054H86.1081V60.5946ZM82.9189 76.5405L86.1081 76.5405V79.7297H82.9189L82.9189 76.5405ZM79.7297 76.5405H82.9189V73.3513H86.1081H89.2973V70.1622H86.1081H82.9189V66.973H86.1081H89.2973V63.7838H86.1081V60.5946L82.9189 60.5946V63.7838H79.7297V66.973V70.1622H76.5405V66.973H73.3513V70.1622H76.5405L76.5405 73.3513H73.3513H70.1622V76.5405H73.3513H76.5405L76.5405 79.7297H79.7297V76.5405ZM79.7297 76.5405H76.5405L76.5405 73.3513H79.7297V76.5405ZM102.054 111.622V108.432H98.8649L98.8649 111.622H102.054ZM95.6757 79.7297H92.4865H89.2973V76.5405H92.4865H95.6757V79.7297ZM73.3513 82.9189H70.1622V79.7297H73.3513V82.9189ZM76.5405 95.6757H79.7297V98.8649H76.5405L76.5405 95.6757ZM60.5946 73.3513L60.5946 76.5405H63.7838H66.973V73.3513H63.7838H60.5946ZM57.4054 73.3513H60.5946L60.5946 70.1622H63.7838H66.973H70.1622V66.973V63.7838H66.973V60.5946H63.7838L60.5946 60.5946V57.4054H63.7838H66.973V54.2162V51.027H63.7838V54.2162H60.5946V51.027V47.8378H57.4054H54.2162H51.027V51.027H47.8378V47.8378V44.6486L44.6487 44.6487V41.4595H41.4595V44.6487L38.2703 44.6486V47.8378H41.4595V51.027V54.2162V57.4054V60.5946H44.6487L44.6486 63.7838H41.4595H38.2703V60.5946H35.0811V63.7838H38.2703V66.973H35.0811V70.1622H31.8919H28.7027V73.3513H31.8919L31.8919 76.5405V79.7297H28.7027V76.5405L25.5135 76.5405V73.3513H22.3243L22.3243 76.5405L19.1351 76.5405H15.9459V79.7297H19.1351H22.3243L22.3243 82.9189H25.5135V79.7297H28.7027V82.9189H31.8919H35.0811V86.1081H38.2703V82.9189H41.4595V79.7297H44.6487V76.5405H47.8378V73.3513H44.6487V70.1622H41.4595V66.973H44.6487L44.6486 63.7838H47.8378V60.5946H51.027V63.7838H54.2162V66.973L51.027 66.973H47.8378V70.1622H51.027V73.3513H54.2162V76.5405H57.4054V73.3513ZM57.4054 73.3513H54.2162V70.1622V66.973H57.4054V63.7838V60.5946H60.5946L60.5946 63.7838H63.7838H66.973L66.973 66.973L63.7838 66.973H60.5946V70.1622H57.4054V73.3513ZM38.2703 76.5405H41.4595V73.3513V70.1622H38.2703H35.0811V73.3513H38.2703V76.5405ZM38.2703 76.5405H35.0811V79.7297H38.2703V76.5405ZM25.5135 79.7297V76.5405H22.3243L22.3243 79.7297H25.5135ZM47.8378 60.5946H44.6487V57.4054V54.2162H47.8378H51.027V51.027H54.2162V54.2162H57.4054V57.4054H54.2162H51.027H47.8378V60.5946ZM41.4595 47.8378H44.6486L44.6487 44.6487H41.4595V47.8378ZM25.5135 54.2162H22.3243H19.1351H15.9459V51.027H19.1351H22.3243H25.5135V54.2162ZM35.0811 41.4595V44.6487H31.8919H28.7027V41.4595H31.8919H35.0811ZM35.0811 41.4595V38.2703H38.2703V41.4595H35.0811ZM28.7027 35.0811V31.8919H31.8919V35.0811H28.7027ZM79.7297 28.7027H76.5405L76.5405 25.5135H73.3513H70.1622V28.7027V31.8919V35.0811H73.3513V31.8919H76.5405L79.7297 31.8919V28.7027ZM102.054 41.4595H105.243V44.6487H102.054V41.4595ZM60.5946 111.622H57.4054V114.811H60.5946L60.5946 111.622ZM38.2703 111.622V114.811H41.4595V111.622H38.2703ZM38.2703 111.622V108.432H35.0811V111.622H38.2703ZM28.7027 111.622V108.432H31.8919L31.8919 111.622H28.7027ZM3.18919 70.1622H6.37838V73.3513H3.18919V70.1622ZM102.054 102.054H98.8649H95.6757H92.4865V98.8649V95.6757V92.4865H95.6757H98.8649H102.054V95.6757V98.8649V102.054ZM54.2162 22.3243H57.4054V19.1351H54.2162V22.3243ZM70.1622 0H66.973V3.18919H70.1622V0ZM98.8649 0H95.6757V3.18919V6.37838V9.56757V12.7568V15.9459V19.1351V22.3243H98.8649H102.054H105.243H108.432H111.622H114.811H118V19.1351V15.9459V12.7568V9.56757V6.37838V3.18919V0H114.811H111.622H108.432H105.243H102.054H98.8649ZM114.811 15.9459V19.1351H111.622H108.432H105.243H102.054H98.8649V15.9459V12.7568V9.56757V6.37838V3.18919H102.054H105.243H108.432H111.622H114.811L114.811 6.37838V9.56757V12.7568V15.9459ZM9.56757 6.37838H6.37838V9.56757V12.7568V15.9459H9.56757H12.7568H15.9459V12.7568V9.56757V6.37838H12.7568H9.56757ZM102.054 6.37838H105.243H108.432H111.622V9.56757V12.7568V15.9459H108.432H105.243H102.054V12.7568V9.56757V6.37838ZM108.432 25.5135H111.622H114.811H118V28.7027H114.811H111.622H108.432V25.5135ZM3.18919 51.027H0V54.2162H3.18919V51.027ZM111.622 51.027H108.432V54.2162H111.622H114.811H118V51.027H114.811H111.622ZM92.4865 70.1622H95.6757V73.3513H92.4865V70.1622ZM102.054 73.3513H98.8649V76.5405H102.054V73.3513ZM3.18919 79.7297H0V82.9189V86.1081V89.2973V92.4865H3.18919V89.2973V86.1081V82.9189V79.7297ZM66.973 79.7297H63.7838V82.9189H66.973V79.7297ZM0 95.6757H3.18919H6.37838H9.56757H12.7568H15.9459H19.1351H22.3243V98.8649V102.054V105.243V108.432V111.622V114.811V118H19.1351H15.9459H12.7568H9.56757H6.37838H3.18919H0V114.811V111.622V108.432V105.243V102.054V98.8649V95.6757ZM19.1351 114.811L15.9459 114.811H12.7568H9.56757H6.37838L3.18919 114.811V111.622V108.432V105.243V102.054V98.8649H6.37838H9.56757H12.7568H15.9459H19.1351V102.054V105.243V108.432V111.622V114.811ZM98.8649 95.6757H95.6757V98.8649H98.8649V95.6757ZM6.37838 102.054H9.56757H12.7568H15.9459V105.243V108.432V111.622H12.7568H9.56757H6.37838V108.432V105.243V102.054ZM79.7297 111.622H76.5405V114.811V118H79.7297H82.9189H86.1081V114.811H82.9189L79.7297 114.811V111.622Z" fill="black"/>
</svg>
