<svg xmlns="http://www.w3.org/2000/svg" viewBox="29.3085 798.073 26.6441 26.6441" fill="currentColor"><g transform="translate(27.3102 796.658) scale(0.0832627 0.0832627) translate(0.000000,368.000000) scale(0.010000,-0.010000)"><path fill-rule="evenodd" d="M16700 35000 c-137 -44 -441 -85 -674 -90 -1235 -29 -4284 -1159
-6026 -2232 -1415 -872 -3889 -3088 -4273 -3828 -86 -165 -301 -480 -478 -700
-177 -220 -384 -520 -460 -667 -77 -147 -274 -509 -439 -803 -1955 -3492
-2455 -7726 -1391 -11766 136 -514 313 -1063 394 -1220 81 -156 147 -342 147
-413 0 -70 270 -669 600 -1330 2152 -4311 6373 -7550 11150 -8556 2809 -591
6942 -220 8951 805 215 110 456 200 535 200 131 0 1104 477 1953 958 2304
1304 4786 3992 6015 6514 328 672 596 1269 596 1327 0 58 116 385 258 728
1101 2657 1157 6927 131 10019 -1051 3172 -2703 5570 -5212 7571 -1607 1280
-2405 1769 -3727 2279 -330 127 -806 313 -1057 413 -1741 691 -5853 1156
-6993 791z m-2529 -2760 c20 -61 -147 -354 -370 -650 -223 -297 -717 -1174
-1098 -1948 -855 -1739 -834 -1720 -1548 -1453 -1865 698 -2299 1070 -1849
1585 542 620 2316 1841 3087 2124 251 92 592 242 757 333 327 181 963 186
1021 9z m10157 -314 c452 -200 941 -446 1087 -545 146 -100 304 -181 350 -182
47 -1 466 -293 931 -650 465 -357 878 -649 918 -649 116 0 205 -383 138 -594
-119 -375 -2116 -1285 -2611 -1190 -112 22 -334 329 -568 785 -210 412 -448
849 -528 970 -80 122 -145 288 -145 368 0 80 -105 273 -233 428 -294 358 -867
1422 -867 1612 0 210 537 86 1528 -353z m-6946 146 c67 -81 115 -958 130
-2348 30 -2915 127 -2807 -2231 -2476 -1518 213 -1673 376 -1186 1252 107 193
340 643 517 1000 792 1597 2366 3058 2770 2572z m2665 29 c1089 -414 3379
-4264 2763 -4645 -217 -134 -1725 -356 -2420 -356 -1105 0 -1064 -96 -1084
2536 -19 2562 33 2735 741 2465z m9467 -4326 c369 -302 1686 -2268 1686 -2516
0 -43 65 -221 144 -394 641 -1405 1020 -2832 1068 -4017 36 -883 158 -848
-2974 -848 -3224 0 -3081 -48 -3182 1066 -168 1852 -284 2774 -472 3746 -259
1343 -256 1350 988 1881 1129 482 1413 617 2019 958 509 288 521 290 723 124z
m-20571 -515 c609 -297 1363 -656 1675 -799 709 -325 732 -402 476 -1619 -115
-546 -288 -1743 -386 -2661 -122 -1148 -230 -1750 -345 -1925 l-168 -256
-2675 0 c-3446 0 -3316 -80 -2965 1814 358 1937 1402 4291 2488 5609 409 497
575 483 1900 -163z m6407 -1817 c1936 -206 1897 -197 2026 -480 67 -147 120
-1097 134 -2418 31 -2794 275 -2545 -2499 -2545 -2610 0 -2511 -49 -2511 1241
0 511 43 1060 96 1219 53 160 147 695 208 1190 273 2197 72 2055 2546 1793z
m8336 -76 c492 -593 932 -5043 521 -5263 -209 -112 -4174 -149 -4453 -42 -387
149 -454 544 -454 2683 0 2111 58 2412 475 2464 2522 316 3739 365 3911 158z
m-13331 -7412 c214 -214 245 -336 245 -949 0 -386 44 -1007 99 -1379 198
-1363 297 -1991 414 -2630 197 -1071 92 -1197 -1513 -1807 -192 -74 -642 -304
-998 -512 -357 -208 -756 -378 -887 -378 -834 0 -2691 3593 -3156 6108 -347
1874 -480 1792 2918 1792 l2632 0 246 -245z m6926 41 c215 -200 336 -2475 235
-4396 -37 -693 -125 -730 -2264 -940 l-1882 -186 -180 238 c-99 131 -230 553
-292 938 -62 385 -175 1082 -250 1550 -328 2032 -307 2742 86 2900 505 204
4310 117 4547 -104z m6981 -49 c188 -188 239 -322 200 -525 -29 -150 -80 -632
-113 -1072 -117 -1550 -437 -3214 -695 -3608 -176 -268 -991 -283 -1954 -34
-192 50 -714 91 -1160 91 -1231 1 -1190 -93 -1190 2720 0 2948 -256 2681 2566
2681 l2093 0 253 -253z m8103 31 c493 -494 -591 -4199 -1791 -6124 -1103
-1768 -1096 -1765 -2424 -1111 -495 243 -1178 563 -1517 710 -1103 478 -1129
545 -802 2097 124 589 340 2224 515 3899 79 756 114 764 3167 731 2377 -27
2700 -49 2852 -202z m-15065 -7178 c188 -188 200 -333 200 -2500 l0 -2300
-352 0 c-673 0 -1782 1274 -2697 3098 -303 604 -551 1143 -551 1198 0 488
2975 929 3400 504z m4916 -7 c661 -173 868 -422 659 -796 -96 -172 -175 -367
-175 -433 0 -67 -146 -353 -325 -638 -179 -284 -460 -748 -625 -1032 -296
-507 -1287 -1581 -1725 -1869 -200 -131 -252 -130 -469 12 l-243 159 -9 2200
c-11 2781 -81 2662 1484 2561 584 -38 1226 -111 1428 -164z m-10223 -935 c65
-78 406 -708 758 -1399 352 -692 826 -1531 1053 -1865 472 -695 468 -953 -11
-858 -417 84 -1790 696 -2313 1031 -237 152 -552 345 -701 429 -407 231 -1517
1104 -1610 1266 -158 276 46 521 733 882 1222 642 1856 798 2091 514z m14257
-169 c630 -234 1488 -792 1527 -992 63 -329 -1893 -1743 -3273 -2366 -1564
-705 -2070 -693 -1586 40 626 950 1067 1700 1134 1929 39 138 130 318 201 400
72 83 207 342 301 578 303 761 578 828 1696 411z"/></g></svg>
