<svg width="1920" height="1080" viewBox="0 0 1920 1080" fill="none" xmlns="http://www.w3.org/2000/svg">
<rect width="1920" height="1080" fill="#091717"/>
<g clip-path="url(#clip0_1060_2533)">
<path d="M324.378 494.21H189V527.474H324.378V494.21Z" fill="white"/>
<path d="M324.378 560.737H189V594.001H324.378V560.737Z" fill="white"/>
<path d="M422.647 518.006C419.818 504.113 416.843 499.361 400.918 499.361C394.171 499.361 388.621 501.247 384.849 504.475C381.584 507.16 380.133 510.533 380.133 514.741C380.133 518.514 382.164 523.121 384.74 525.551C388.259 528.925 393.373 531.899 401.898 536.216C412.418 541.621 420.398 544.741 426.202 551.343C429.031 554.607 431.861 560.665 431.861 567.267C431.861 574.305 429.431 580.653 424.28 585.223C418.621 590.338 409.697 593.748 397.69 593.748C389.855 593.748 380.278 592.007 372.443 589.141C371.209 580.761 369.722 575.103 367.981 569.154L372.697 567.92C377.013 584.534 384.595 588.597 398.887 588.597C405.09 588.597 410.894 586.856 415.102 583.591C419.274 580.326 421.994 575.61 421.994 569.553C421.994 564.148 420.507 560.919 417.677 557.546C413.361 552.431 406.07 549.166 398.234 545.248C390 541.041 378.646 534.983 374.764 529.433C372.334 525.914 370.702 521.452 370.702 516.482C370.702 510.678 373.132 504.875 378.791 500.558C383.615 496.785 391.052 494.21 401.571 494.21C410.205 494.21 417.242 495.298 424.134 497.982C424.932 503.532 426.166 510.787 427.363 516.881L422.647 517.97" fill="white"/>
<path d="M452.463 561.351C452.463 550.941 454.349 544.193 458.013 539.478C461.241 535.705 465.703 533.819 471.108 533.819C476.767 533.819 481.374 535.705 484.457 539.478C488.084 544.23 490.007 550.977 490.007 561.351C490.007 572.27 487.722 579.162 484.348 583.479C481.265 586.998 476.912 589.138 471.253 589.138C465.594 589.138 461.277 586.961 458.158 583.479C454.784 579.162 452.463 572.27 452.463 561.351ZM442.741 561.17C442.741 573.467 445.969 581.557 451.229 586.562C456.634 591.278 463.127 593.31 471.217 593.31C479.741 593.31 486.343 591.133 491.748 586.309C496.899 581.303 499.983 573.358 499.983 561.17C499.983 550.505 497.008 542.271 491.748 537.011C486.488 532.005 480.285 529.575 471.217 529.575C462.148 529.575 456.38 532.005 451.084 536.866C445.679 542.126 442.705 550.505 442.705 561.17H442.741Z" fill="white"/>
<path d="M518.049 535.42H508.037V531.103H518.049V522.579C518.049 514.344 520.044 508.141 524.505 503.535C527.734 500.451 532.341 498.275 538.29 498.275C543.804 498.275 547.068 499.762 549.753 501.503C553.67 504.079 555.557 507.452 555.557 509.883C555.557 512.603 554.215 514.054 551.784 514.054C548.556 514.054 547.322 511.225 545.835 508.25C544.348 505.276 542.607 502.446 538.399 502.446C535.714 502.446 533.538 503.389 531.652 505.421C528.967 508.649 527.335 513.51 527.335 523.087V531.067H544.493V535.384H527.335V579.53C527.335 587.62 527.879 588.454 538 588.454V591.827H507.892V588.454C517.323 588.454 518.012 587.511 518.012 579.276V535.384" fill="white"/>
<path d="M550.334 532.297C558.823 531.463 564.663 528.234 566.404 514.051H569.778V531.064H584.07V535.38H569.778V578.983C569.778 585.331 571.664 588.559 576.38 588.559C579.499 588.559 582.038 587.471 584.759 585.44L586.936 588.414C583.417 591.498 579.245 593.275 573.695 593.275C566.803 593.275 560.455 590.047 560.455 579.491V535.344H550.334V532.261" fill="white"/>
<path d="M615.373 505.961C615.373 502.334 615.918 501.245 619.436 501.245H632.278C641.745 501.245 647.803 503.385 651.576 506.505C654.55 508.936 656.836 514.195 656.836 518.802C656.836 525.295 654.55 530.011 650.633 533.24C645.772 537.302 638.19 539.044 628.868 539.044H615.373V505.961ZM605.398 577.676C605.398 587.253 604.564 587.942 594.443 587.942V591.86H638.481C652.519 591.86 660.499 588.631 665.759 583.48C671.164 578.366 673.304 571.618 673.304 564.835C673.304 557.399 669.532 551.994 664.671 548.221C658.867 543.759 651.032 541.474 642.253 541.184V540.93C650.778 539.733 656.437 537.012 660.499 533.385C665.505 528.923 667.246 522.974 667.246 517.823C667.246 510.931 663.728 505.526 658.613 502.043C651.322 497.182 643.233 496.094 630.79 496.094H594.479V500.012C604.6 500.012 605.434 500.701 605.434 510.423V577.676H605.398ZM615.373 544.195H632.132C643.196 544.195 650.633 546.081 655.348 549.745C660.209 553.372 662.785 558.632 662.785 564.581C662.785 571.618 660.753 576.624 657.525 579.998C652.918 584.714 646.715 586.745 637.138 586.745H620.416C616.208 586.745 615.41 585.802 615.41 580.143V544.231L615.373 544.195Z" fill="white"/>
<path d="M718.25 581.192C714.876 584.565 710.27 588.193 703.668 588.193C699.605 588.193 696.775 586.851 694.744 584.964C692.749 582.933 691.769 579.958 691.769 576.44C691.769 570.237 695.578 566.718 700.838 563.889C705.844 560.805 712.446 558.883 718.25 557.287V581.192ZM727.573 548.363C727.573 542.414 726.63 538.75 723.111 534.869C719.737 531.096 715.022 529.609 706.896 529.609C699.75 529.609 694.998 531.35 691.516 533.418C687.199 535.957 684.515 539.621 684.515 542.849C684.515 544.881 685.712 546.767 688.287 546.767C691.116 546.767 692.35 545.425 693.003 543.502C694.236 540.528 695.433 538.242 697.211 536.9C699.641 535.014 702.325 533.817 706.388 533.817C710.85 533.817 714.078 535.159 716.11 537.88C717.887 540.165 718.286 544.228 718.286 547.311V553.115L710.306 555.001C701.672 556.888 694.925 559.572 690.318 562.692C684.369 566.609 681.939 571.47 681.939 577.673C681.939 582.824 684.079 586.705 687.344 589.281C690.863 592.11 695.433 593.308 699.75 593.308C708.674 593.308 714.078 590.188 718.649 585.871H719.048C720.281 590.333 723.111 592.763 727.827 592.763C731.345 592.763 733.776 591.965 736.061 590.877L735.263 587.794C734.175 588.447 732.941 588.737 731.635 588.737C728.951 588.737 727.573 586.053 727.573 579.958V548.363Z" fill="white"/>
<path d="M796.277 579.815C796.277 587.397 796.821 588.449 802.915 588.449V591.822H780.098V588.449C786.555 588.449 786.991 587.651 786.991 579.525V549.417C786.991 544.157 786.301 539.804 783.762 537.12C781.985 535.379 779.59 534.436 775.927 534.436C770.268 534.436 764.174 539.55 758.769 546.987V579.525C758.769 587.614 758.914 588.449 765.262 588.449V591.822H741.647V588.449C748.938 588.449 749.482 587.651 749.482 579.525V546.733C749.482 538.897 748.793 537.954 741.647 538.099V535.125C747.596 534.182 752.167 532.839 756.628 529.575L757.971 530.409L758.515 540.784H758.769C764.174 533.891 771.066 529.575 778.466 529.575C784.27 529.575 788.442 531.062 791.416 533.891C794.536 536.866 796.277 541.727 796.277 548.873V579.779" fill="white"/>
<path d="M827.908 558.636L847.242 539.882C850.87 536.508 851.849 534.477 845.356 534.477V531.103H865.343V534.477C861.426 534.622 859.286 535.565 856.166 538.54L841.982 552.034L862.659 583.375C865.634 588.091 868.608 588.635 872.671 588.526V591.9H857.254L835.235 557.874L827.654 565.311V579.639C827.654 587.474 827.908 588.563 835.344 588.563V591.936H810.242V588.563C818.077 588.563 818.331 587.474 818.331 579.639V515.541C818.331 507.706 817.533 506.763 810.242 506.763V503.788C816.844 502.845 821.451 501.358 826.457 498.275L827.69 499.073V558.636H827.944" fill="white"/>
</g>
<line x1="966.971" y1="463.486" x2="966.971" y2="617.112" stroke="white" stroke-width="5.53784"/>
<path d="M1230.96 517.461H1236.1V528.075H1229.44C1224.23 528.075 1220.34 529.331 1217.77 531.853C1215.21 534.366 1213.92 538.5 1213.92 544.247V579.05H1203.42V517.703H1213.92V527.492C1213.92 528.045 1214.2 528.317 1214.73 528.317C1215.04 528.317 1215.27 528.24 1215.44 528.082C1215.6 527.922 1215.74 527.613 1215.91 527.135C1217.93 520.692 1222.96 517.466 1230.96 517.466H1230.96V517.46V517.461ZM1300.81 530.612C1303.56 535.525 1304.95 541.446 1304.95 548.366C1304.95 555.285 1303.57 561.207 1300.81 566.12C1298.04 571.034 1294.46 574.713 1290.06 577.151C1285.67 579.588 1280.94 580.807 1275.89 580.807C1265.93 580.807 1258.92 576.795 1254.88 568.769C1254.57 568.14 1254.18 567.822 1253.71 567.822C1253.25 567.822 1253.01 568.057 1253.01 568.534V601.454H1242.51V517.696H1253.01V528.198C1253.01 528.667 1253.24 528.91 1253.71 528.91C1254.18 528.91 1254.56 528.599 1254.88 527.963C1258.92 519.938 1265.93 515.924 1275.89 515.924C1280.94 515.924 1285.67 517.143 1290.06 519.581C1294.46 522.019 1298.03 525.698 1300.81 530.612ZM1294.45 548.366C1294.45 541.129 1292.53 535.488 1288.68 531.438C1284.83 527.387 1279.76 525.365 1273.45 525.365C1267.13 525.365 1262.06 527.393 1258.21 531.438C1254.36 535.488 1252.95 541.135 1252.95 548.366C1252.95 555.597 1254.36 561.244 1258.21 565.294C1262.06 569.352 1267.14 571.367 1273.45 571.367C1279.75 571.367 1284.83 569.339 1288.68 565.294C1292.53 561.251 1294.45 555.597 1294.45 548.366ZM1123.96 530.702C1126.72 535.615 1128.1 541.537 1128.1 548.456C1128.1 555.376 1126.72 561.297 1123.96 566.21C1121.2 571.124 1117.62 574.804 1113.22 577.241C1108.83 579.679 1104.1 580.898 1099.05 580.898C1089.08 580.898 1082.08 576.885 1078.04 568.859C1077.73 568.23 1077.33 567.912 1076.87 567.912C1076.4 567.912 1076.17 568.147 1076.17 568.623V601.542H1065.67V517.786H1076.17V528.286C1076.17 528.755 1076.4 528.998 1076.87 528.998C1077.35 528.998 1077.73 528.687 1078.04 528.051C1082.09 520.027 1089.09 516.013 1099.05 516.013C1104.11 516.013 1108.83 517.232 1113.23 519.67C1117.62 522.108 1121.2 525.787 1123.97 530.7H1123.96L1123.96 530.702ZM1117.6 548.456C1117.6 541.219 1115.68 535.578 1111.83 531.528C1107.98 527.485 1102.9 525.455 1096.59 525.455C1090.29 525.455 1085.21 527.483 1081.36 531.528C1077.51 535.586 1076.1 541.227 1076.1 548.456C1076.1 555.685 1077.51 561.334 1081.36 565.386C1085.21 569.444 1090.28 571.457 1096.59 571.457C1102.91 571.457 1107.98 569.429 1111.83 565.386C1115.68 561.343 1117.6 555.687 1117.6 548.456ZM1184.86 559.563H1195.94C1194.47 565.309 1191.45 570.282 1186.91 574.485C1182.35 578.694 1175.84 580.792 1167.35 580.792C1160.97 580.792 1155.35 579.475 1150.49 576.839C1145.63 574.204 1141.88 570.457 1139.23 565.574C1136.58 560.699 1135.26 554.961 1135.26 548.351C1135.26 541.741 1136.55 536.003 1139.11 531.127C1141.67 526.251 1145.27 522.495 1149.9 519.862C1154.53 517.227 1159.95 515.909 1166.17 515.909C1172.4 515.909 1177.56 517.211 1181.87 519.801C1186.19 522.397 1189.41 525.843 1191.56 530.12C1193.7 534.413 1194.76 539.107 1194.76 544.218V551.297H1146.33C1146.71 557.429 1148.77 562.314 1152.46 565.925C1156.15 569.544 1161.11 571.353 1167.34 571.353C1172.39 571.353 1176.27 570.316 1178.96 568.227C1181.64 566.137 1183.6 563.252 1184.85 559.551L1184.86 559.566L1184.86 559.563ZM1146.12 542.46H1182.76C1182.76 537.115 1181.4 532.92 1178.67 529.893C1175.95 526.871 1171.67 525.35 1165.84 525.35C1160.39 525.35 1155.93 526.826 1152.47 529.779C1149.01 532.723 1146.89 536.956 1146.12 542.46ZM1313.42 579.036H1323.93V494.097H1313.42V579.043V579.036ZM1461.1 510.996H1473.37V497.708H1461.1V510.994V510.996ZM1506.4 569.898C1504.49 570.095 1503.34 570.194 1502.96 570.194C1502.42 570.194 1501.97 570.036 1501.67 569.716C1501.36 569.405 1501.2 568.975 1501.2 568.414C1501.2 568.028 1501.3 566.861 1501.5 564.932C1501.68 563.009 1501.79 560.034 1501.79 556.028V526.676H1516.77L1513.81 517.689H1501.79V501.167H1491.3V517.681H1479.87V526.667H1491.3V558.964C1491.3 565.733 1492.94 570.768 1496.2 574.068C1499.46 577.37 1504.45 579.027 1511.14 579.027H1519.31V569.594H1515.22C1511.26 569.594 1508.32 569.692 1506.41 569.889L1506.4 569.898ZM1569.87 517.687L1552.48 569.162C1552.25 569.798 1551.88 570.624 1550.7 570.624C1549.51 570.624 1549.13 569.799 1548.89 569.162L1531.5 517.687H1520.8L1540.93 579.036H1548.06C1548.52 579.036 1548.88 579.082 1549.12 579.157C1549.35 579.233 1549.54 579.429 1549.7 579.747C1550 580.216 1549.97 580.928 1549.58 581.867L1546.31 590.831C1545.84 592.013 1544.95 592.603 1543.63 592.603C1543.16 592.603 1542.08 592.504 1540.37 592.307C1538.65 592.11 1536.44 592.013 1533.72 592.013H1525.19V601.445H1536.4C1542.93 601.445 1546.87 600.325 1550.25 598.084C1553.64 595.843 1556.26 591.89 1558.13 586.229L1579.88 520.044V517.689H1569.87V517.687ZM1425.55 540.574L1409.1 517.687H1397.54V520.042L1417.26 546.586L1393.22 576.673V579.027H1405.01L1424.15 554.369L1442.01 579.027H1453.33V576.673L1432.43 548.357L1455.08 520.163V517.687H1443.29L1425.56 540.574H1425.55ZM1462.21 579.036H1472.72V517.696H1462.21V579.043V579.036ZM1393.07 559.563C1391.59 565.309 1388.58 570.282 1384.04 574.485C1379.48 578.694 1372.97 580.792 1364.48 580.792C1358.1 580.792 1352.48 579.475 1347.62 576.839C1342.75 574.204 1339.01 570.457 1336.36 565.574C1333.72 560.699 1332.4 554.961 1332.4 548.351C1332.4 541.741 1333.68 536.003 1336.25 531.127C1338.82 526.251 1342.41 522.495 1347.04 519.862C1351.66 517.227 1357.09 515.909 1363.32 515.909C1369.55 515.909 1374.7 517.211 1379.02 519.801C1383.34 522.397 1386.57 525.843 1388.71 530.12C1390.85 534.413 1391.91 539.107 1391.91 544.218V551.297H1343.48C1343.87 557.429 1345.91 562.314 1349.61 565.925C1353.3 569.544 1358.27 571.353 1364.49 571.353C1369.54 571.353 1373.43 570.316 1376.11 568.227C1378.79 566.137 1380.75 563.252 1381.99 559.551H1393.08L1393.07 559.566V559.563ZM1343.51 542.46H1380.16C1380.16 537.115 1378.79 532.92 1376.08 529.893C1373.35 526.871 1369.07 525.35 1363.24 525.35C1357.79 525.35 1353.34 526.826 1349.88 529.779C1346.42 532.723 1344.29 536.956 1343.52 542.46H1343.51Z" fill="#FBFAF4"/>
<path d="M1636.2 526.093C1630.41 515.146 1613.92 512.555 1605.83 521.426C1605.58 521.686 1605.14 521.513 1605.14 521.154V517.676H1596.36V579.036H1605.14V555.592C1605.14 555.233 1605.58 555.059 1605.83 555.32C1608.89 558.538 1613.21 560.678 1618.71 560.678C1630.99 560.758 1639.43 550.79 1639.16 538.371C1639.16 533.565 1638.16 529.434 1636.2 526.091V526.093ZM1630.37 538.373C1630.37 542.861 1629.17 546.914 1626.81 549.41C1622.53 554.33 1612.57 554.281 1608.25 549.41C1603.63 544.662 1603.58 532.128 1608.25 527.414C1612.57 522.441 1622.52 522.39 1626.81 527.407C1629.18 529.855 1630.37 533.878 1630.37 538.373H1630.37Z" fill="#FBFAF4"/>
<path d="M1690.31 579.036H1616.52V570.838H1690.31C1695.99 570.838 1701.26 569.571 1705.96 567.071C1710.96 564.442 1715.07 560.415 1717.87 555.415L1717.88 555.391C1720.65 550.508 1722.06 544.782 1722.06 538.371C1722.06 531.96 1720.65 526.239 1717.88 521.358L1717.87 521.336C1715.07 516.332 1710.96 512.303 1705.98 509.683C1701.26 507.174 1695.99 505.906 1690.31 505.906H1596.48V497.708H1690.31C1697.34 497.708 1703.91 499.299 1709.81 502.436C1716.18 505.785 1721.44 510.935 1725.02 517.32C1728.49 523.449 1730.26 530.53 1730.26 538.371C1730.26 546.212 1728.49 553.3 1725.01 559.429C1721.44 565.809 1716.18 570.957 1709.79 574.316C1703.9 577.445 1697.34 579.034 1690.31 579.034L1690.31 579.036Z" fill="#FBFAF4"/>
<path d="M1709.02 526.334C1701.73 512.611 1678.86 512.628 1671.51 526.339C1669.66 529.676 1668.72 533.724 1668.72 538.373C1668.46 551.484 1677.39 560.768 1690.31 560.68C1703.21 560.77 1712.11 551.392 1711.9 538.373C1711.9 533.726 1710.93 529.676 1709.02 526.336L1709.02 526.334ZM1703.11 538.373C1703.11 542.861 1701.91 546.914 1699.55 549.41C1695.27 554.33 1685.31 554.28 1680.99 549.41C1676.37 544.661 1676.32 532.128 1680.99 527.414C1685.31 522.441 1695.26 522.39 1699.55 527.407C1701.92 529.855 1703.11 533.877 1703.12 538.373H1703.11Z" fill="#FBFAF4"/>
<path d="M1663.32 517.075C1660.47 517.075 1658.18 517.56 1656.52 518.517C1655.53 519.053 1654.63 519.993 1653.77 521.363C1653.56 521.703 1653.04 521.555 1653.04 521.156V517.677H1644.26V559.517H1653.04V535.658C1653.04 532.161 1653.79 529.646 1655.28 528.182C1658.03 525.335 1663.52 526.057 1667.56 525.972V517.079H1663.32V517.075Z" fill="#FBFAF4"/>
<defs>
<clipPath id="clip0_1060_2533">
<rect width="683.636" height="99.7921" fill="white" transform="translate(189 494.211)"/>
</clipPath>
</defs>
</svg>
